<svg width="23" height="21" viewBox="0 0 23 21" fill="none" xmlns="http://www.w3.org/2000/svg">
<path d="M19.7072 3.88376C20.6617 3.2474 21.4041 2.29285 21.7223 1.23224C20.8738 1.76255 19.8132 2.18679 18.8587 2.39891C18.0102 1.44437 16.8435 0.914062 15.5708 0.914062C13.0253 0.914062 11.0102 3.03527 11.0102 5.68679C11.0102 6.11103 11.0102 6.42921 11.1162 6.7474C7.29806 6.53527 3.90412 4.62618 1.67685 1.76255C1.2526 2.50497 1.04048 3.35346 1.04048 4.20194C1.04048 5.89891 1.88897 7.38376 3.05564 8.23225C2.31321 8.23225 1.57079 8.02012 0.934426 7.59588V7.70194C0.934426 10.0353 2.52533 11.9444 4.64655 12.4747C4.2223 12.5807 3.90412 12.6868 3.47987 12.6868C3.16169 12.6868 2.94958 12.6868 2.63139 12.5807C3.1617 14.4898 4.85867 15.8686 6.87382 15.9747C5.28291 17.2474 3.37382 17.9898 1.14654 17.9898C0.828362 17.9898 0.404119 17.9898 0.0859375 17.8838C2.10109 19.2625 4.54048 20.005 7.08594 20.005C15.4647 20.005 20.1314 12.6868 20.1314 6.32315C20.1314 6.11103 20.1314 5.89891 20.1314 5.68679C20.9799 5.05043 21.8284 4.20194 22.3587 3.14133C21.5102 3.56558 20.6617 3.7777 19.7072 3.88376Z" fill="#1DA1F2"/>
</svg>
