<svg width="24" height="24" viewBox="0 0 24 24" fill="none" xmlns="http://www.w3.org/2000/svg">
<path d="M6.67779 22.9984C6.60863 22.9984 6.53947 22.9984 6.40115 22.9984C5.01791 22.9293 3.70383 22.3068 2.6664 21.3385C1.62898 20.3011 1.07566 18.987 1.0065 17.6038C0.937339 16.2206 1.42147 14.9065 2.38974 13.9382L6.33198 9.99599C7.30025 9.02772 8.54515 8.54359 9.99755 8.61275C11.3808 8.68191 12.6949 9.30437 13.7323 10.2726C14.009 10.5493 14.009 10.9643 13.7323 11.2409C13.4557 11.5176 13.0407 11.5176 12.764 11.2409C12.0033 10.4801 11.035 9.99599 9.99755 9.99599C8.96012 9.92683 8.06103 10.2726 7.36941 10.9643L3.42717 14.9065C2.73555 15.5981 2.38974 16.4972 2.45891 17.5346C2.52807 18.5721 2.94305 19.5403 3.70383 20.3011C4.46462 21.0619 5.43288 21.546 6.47031 21.546C7.50774 21.6152 8.40684 21.2694 9.09846 20.5778L13.0407 16.6355C13.3173 16.3589 13.7323 16.3589 14.009 16.6355C14.2856 16.9122 14.2856 17.3272 14.009 17.6038L10.0667 21.546C9.16761 22.5143 7.99187 22.9984 6.67779 22.9984Z" fill="#6B7280"/>
<path d="M14.4933 15.2539C13.1101 15.2539 11.6577 14.7006 10.5511 13.594C10.2745 13.3173 10.2745 12.9024 10.5511 12.6257C10.8278 12.3491 11.2427 12.3491 11.5194 12.6257C13.1101 14.2164 15.5308 14.3548 16.914 12.9715L20.8562 9.02929C22.2395 7.64605 22.1012 5.22538 20.5104 3.63466C19.7497 2.87388 18.7814 2.38974 17.744 2.38974C16.7065 2.32058 15.8074 2.66638 15.185 3.358L11.2427 7.30024C10.9661 7.57689 10.5511 7.57689 10.2745 7.30024C9.99783 7.02359 9.99783 6.60862 10.2745 6.33197L14.2167 2.38974C15.185 1.42147 16.4299 0.937339 17.8823 1.0065C19.2655 1.07566 20.5796 1.69812 21.617 2.66638C23.761 4.8104 23.8994 8.06102 21.9628 9.99755L18.0206 13.9398C16.914 14.7697 15.7383 15.2539 14.4933 15.2539Z" fill="#6B7280"/>
<path d="M6.67779 22.9984C6.60863 22.9984 6.53947 22.9984 6.40115 22.9984C5.01791 22.9293 3.70383 22.3068 2.6664 21.3385C1.62898 20.3011 1.07566 18.987 1.0065 17.6038C0.937339 16.2206 1.42147 14.9065 2.38974 13.9382L6.33198 9.99599C7.30025 9.02772 8.54515 8.54359 9.99755 8.61275C11.3808 8.68191 12.6949 9.30437 13.7323 10.2726C14.009 10.5493 14.009 10.9643 13.7323 11.2409C13.4557 11.5176 13.0407 11.5176 12.764 11.2409C12.0033 10.4801 11.035 9.99599 9.99755 9.99599C8.96012 9.92683 8.06103 10.2726 7.36941 10.9643L3.42717 14.9065C2.73555 15.5981 2.38974 16.4972 2.45891 17.5346C2.52807 18.5721 2.94305 19.5403 3.70383 20.3011C4.46462 21.0619 5.43288 21.546 6.47031 21.546C7.50774 21.6152 8.40684 21.2694 9.09846 20.5778L13.0407 16.6355C13.3173 16.3589 13.7323 16.3589 14.009 16.6355C14.2856 16.9122 14.2856 17.3272 14.009 17.6038L10.0667 21.546C9.16761 22.5143 7.99187 22.9984 6.67779 22.9984Z" stroke="#6B7280" stroke-width="0.25"/>
<path d="M14.4933 15.2539C13.1101 15.2539 11.6577 14.7006 10.5511 13.594C10.2745 13.3173 10.2745 12.9024 10.5511 12.6257C10.8278 12.3491 11.2427 12.3491 11.5194 12.6257C13.1101 14.2164 15.5308 14.3548 16.914 12.9715L20.8562 9.02929C22.2395 7.64605 22.1012 5.22538 20.5104 3.63466C19.7497 2.87388 18.7814 2.38974 17.744 2.38974C16.7065 2.32058 15.8074 2.66638 15.185 3.358L11.2427 7.30024C10.9661 7.57689 10.5511 7.57689 10.2745 7.30024C9.99783 7.02359 9.99783 6.60862 10.2745 6.33197L14.2167 2.38974C15.185 1.42147 16.4299 0.937339 17.8823 1.0065C19.2655 1.07566 20.5796 1.69812 21.617 2.66638C23.761 4.8104 23.8994 8.06102 21.9628 9.99755L18.0206 13.9398C16.914 14.7697 15.7383 15.2539 14.4933 15.2539Z" stroke="#6B7280" stroke-width="0.25"/>
</svg>
