<svg width="22" height="22" viewBox="0 0 22 22" fill="none" xmlns="http://www.w3.org/2000/svg">
<path d="M8.4258 1L8.42586 0H8.4258V1ZM15.8516 8.42579H16.8516V8.42573L15.8516 8.42579ZM14.673 13.2595C14.2825 12.8689 13.6494 12.8689 13.2588 13.2595C12.8683 13.65 12.8683 14.2831 13.2588 14.6737L14.673 13.2595ZM20.2923 21.7071C20.6828 22.0976 21.316 22.0976 21.7065 21.7071C22.097 21.3166 22.097 20.6834 21.7065 20.2929L20.2923 21.7071ZM8.4258 0C6.75933 0 5.13029 0.494164 3.74468 1.42L4.85582 3.08294C5.91253 2.37687 7.15489 2 8.4258 2V0ZM3.74468 1.42C2.35906 2.34584 1.27911 3.66177 0.641379 5.20138L2.48914 5.96675C2.97549 4.79259 3.7991 3.78902 4.85582 3.08294L3.74468 1.42ZM0.641379 5.20138C0.00365031 6.74099 -0.163208 8.43514 0.161903 10.0696L2.12347 9.6794C1.87553 8.43292 2.00278 7.14091 2.48914 5.96675L0.641379 5.20138ZM0.161903 10.0696C0.487014 11.704 1.28949 13.2054 2.46786 14.3837L3.88207 12.9695C2.98341 12.0708 2.37141 10.9259 2.12347 9.6794L0.161903 10.0696ZM2.46786 14.3837C3.64623 15.5621 5.14756 16.3646 6.78201 16.6897L7.17219 14.7281C5.9257 14.4802 4.78074 13.8682 3.88207 12.9695L2.46786 14.3837ZM6.78201 16.6897C8.41645 17.0148 10.1106 16.8479 11.6502 16.2102L10.8848 14.3624C9.71068 14.8488 8.41867 14.9761 7.17219 14.7281L6.78201 16.6897ZM11.6502 16.2102C13.1898 15.5725 14.5057 14.4925 15.4316 13.1069L13.7686 11.9958C13.0626 13.0525 12.059 13.8761 10.8848 14.3624L11.6502 16.2102ZM15.4316 13.1069C16.3574 11.7213 16.8516 10.0923 16.8516 8.42579H14.8516C14.8516 9.69669 14.4747 10.9391 13.7686 11.9958L15.4316 13.1069ZM16.8516 8.42573C16.8514 6.19113 15.9637 4.0481 14.3836 2.468L12.9694 3.88221C14.1744 5.08727 14.8515 6.72165 14.8516 8.42586L16.8516 8.42573ZM14.3836 2.468C12.8035 0.887896 10.6605 0.000142217 8.42586 0L8.42573 2C10.1299 2.00011 11.7643 2.67715 12.9694 3.88221L14.3836 2.468ZM13.2588 14.6737L20.2923 21.7071L21.7065 20.2929L14.673 13.2595L13.2588 14.6737Z" fill="#E0E5E8"/>
</svg>
