<svg width="22" height="16" viewBox="0 0 22 16" fill="none" xmlns="http://www.w3.org/2000/svg">
<path d="M2.10001 4.89999C2.40001 5.09999 3.20001 5.6 4.60001 6.5C6.00001 7.4 7.1 8.10001 7.8 8.60001C7.9 8.70001 8.1 8.79999 8.3 8.89999C8.6 9.09999 8.8 9.2 9 9.3C9.2 9.4 9.40001 9.5 9.60001 9.7C9.80001 9.8 10.1 9.9 10.3 10C10.5 10.1 10.7 10.1 10.9 10.1C11.1 10.1 11.3 10.1 11.5 10C11.7 9.9 12 9.8 12.2 9.7C12.4 9.6 12.7 9.4 12.8 9.3C13 9.2 13.2 8.99999 13.5 8.89999C13.8 8.69999 13.9 8.60001 14 8.60001C14.8 8.10001 16.7 6.89999 19.7 4.89999C20.3 4.49999 20.8 4 21.2 3.5C21.6 3 21.8 2.4 21.8 1.8C21.8 1.3 21.6 0.9 21.2 0.5C20.8 0.1 20.4 0 19.8 0H2C1.4 0 0.9 0.200006 0.5 0.600006C0.2 1.00001 0 1.50001 0 2.10001C0 2.60001 0.199997 3.1 0.699997 3.7C1.1 4.2 1.60001 4.59999 2.10001 4.89999ZM20.8 6.10001C18.1 7.80001 16.1 9.1 14.7 10C14.2 10.3 13.9 10.6 13.6 10.7C13.3 10.9 12.9 11.1 12.4 11.2C11.9 11.4 11.5 11.5 11 11.5C10.6 11.5 10.1 11.4 9.60001 11.2C9.10001 11 8.69999 10.8 8.39999 10.7C8.09999 10.5 7.7 10.3 7.3 10C6.2 9.3 4.2 7.90001 1.2 6.10001C0.699997 5.80001 0.3 5.50001 0 5.10001V14.1C0 14.6 0.200006 15 0.600006 15.4C1.00001 15.8 1.4 15.9 2 15.9H20C20.5 15.9 21 15.7 21.4 15.4C21.8 15 22 14.6 22 14.1V5.10001C21.6 5.50001 21.2 5.90001 20.8 6.10001Z" fill="#6B7280"/>
</svg>
