<svg width="36" height="26" viewBox="0 0 36 26" fill="none" xmlns="http://www.w3.org/2000/svg">
<path d="M35.7687 5.74083C35.7687 2.69404 33.4411 0.243066 30.5649 0.243066C26.6691 0.0677063 22.6959 0 18.6356 0H17.3698C13.3193 0 9.33911 0.0677064 5.4433 0.243743C2.57419 0.243743 0.246552 2.70826 0.246552 5.75505C0.070749 8.16473 -0.00379165 10.5751 0.00042763 12.9854C-0.00660451 15.3958 0.0730931 17.8084 0.23952 20.2233C0.23952 23.27 2.56716 25.7413 5.43627 25.7413C9.52897 25.9241 13.7272 26.0054 17.9957 25.9986C22.2712 26.0122 26.4577 25.9264 30.5551 25.7413C33.4312 25.7413 35.7588 23.27 35.7588 20.2233C35.9276 17.8061 36.005 15.3958 35.9979 12.9787C36.0139 10.5683 35.9375 8.1557 35.7687 5.74083ZM14.557 19.6274V6.32311L24.7535 12.9719L14.557 19.6274Z" fill="#F4F6F7"/>
</svg>
